<?xml version="1.0" encoding="UTF-8"?>
<svg width="1200pt" height="1200pt" version="1.1" viewBox="0 0 1200 1200"
    xmlns="http://www.w3.org/2000/svg">
    <g>
        <path
            d="m226.3 793.01c0.98438 2.8594-0.53516 5.9766-3.3945 6.9609s-5.9766-0.53516-6.9609-3.3984c-0.98438-2.8594 0.53516-5.9766 3.3984-6.9609 2.8594-0.98047 5.9766 0.53906 6.957 3.3984" />
        <path
            d="m273.95 884.68c2.4883 3.793 1.4258 8.8828-2.3672 11.367s-8.8828 1.4258-11.367-2.3672c-2.4844-3.793-1.4258-8.8828 2.3672-11.367s8.8828-1.4258 11.367 2.3672" />
        <path
            d="m349.25 815.96c2.4922 3.793 1.4375 8.8828-2.3555 11.375-3.7891 2.4883-8.8828 1.4336-11.371-2.3555-2.4922-3.793-1.4375-8.8828 2.3555-11.375 3.7891-2.4883 8.8828-1.4336 11.371 2.3555" />
        <path
            d="m464.73 801.71c3.3164 5.0547 1.9102 11.844-3.1445 15.164-5.0508 3.3164-11.84 1.9102-15.16-3.1406-3.3203-5.0547-1.9141-11.844 3.1406-15.164 5.0547-3.3203 11.844-1.9141 15.164 3.1406" />
        <path
            d="m538.71 850.87c6.3789 4.0625 8.2539 12.527 4.1914 18.902-4.0625 6.3789-12.523 8.2578-18.902 4.1953s-8.2578-12.527-4.1953-18.906c4.0625-6.375 12.527-8.2539 18.906-4.1914" />
        <path
            d="m625.28 864.93c8.9766 1.3086 15.195 9.6445 13.887 18.625-1.3086 8.9766-9.6445 15.191-18.621 13.883-8.9766-1.3086-15.195-9.6445-13.887-18.621s9.6445-15.195 18.621-13.887" />
        <path
            d="m730.72 873.3c2.9062 10.18-2.9844 20.785-13.164 23.691-10.176 2.9102-20.781-2.9844-23.691-13.16-2.9062-10.176 2.9844-20.785 13.164-23.691 10.176-2.9062 20.781 2.9844 23.691 13.16" />
        <path
            d="m806.52 789.75c8.2344 9.75 7.0039 24.328-2.7461 32.562s-24.328 7.0039-32.562-2.7461-7.0039-24.328 2.7461-32.562 24.332-7.0039 32.562 2.7461" />
        <path
            d="m412.2 889.41c4.7031 3.7969 5.4375 10.688 1.6406 15.387-3.8008 4.7031-10.691 5.4375-15.391 1.6406-4.7031-3.8008-5.4375-10.691-1.6406-15.391 3.8008-4.7031 10.691-5.4375 15.391-1.6367" />
        <path
            d="m493.84 939.63c7.0469 2.7148 10.559 10.633 7.8438 17.684-2.7188 7.0508-10.637 10.562-17.688 7.8438-7.0469-2.7188-10.559-10.637-7.8438-17.688 2.7188-7.0469 10.637-10.559 17.688-7.8398" />
        <path
            d="m586.13 962.29c9.0508 0.51562 15.969 8.2734 15.449 17.324-0.51562 9.0469-8.2695 15.965-17.32 15.449-9.0508-0.51562-15.969-8.2695-15.453-17.32 0.51953-9.0508 8.2734-15.969 17.324-15.453" />
        <path
            d="m703.42 969.42c2.6562 10.242-3.4922 20.699-13.734 23.355s-20.695-3.4922-23.352-13.734c-2.6602-10.242 3.4883-20.695 13.73-23.352 10.242-2.6602 20.699 3.4883 23.355 13.73" />
        <path
            d="m796.92 927.77c6.4727 10.211 3.4375 23.738-6.7734 30.211-10.215 6.4727-23.742 3.4375-30.211-6.7734-6.4727-10.215-3.4414-23.742 6.7734-30.211 10.211-6.4727 23.738-3.4414 30.211 6.7734" />
        <path
            d="m872.63 858.87c10.453 8.7109 11.863 24.25 3.1484 34.699-8.7148 10.453-24.25 11.863-34.703 3.1484-10.449-8.7109-11.859-24.25-3.1445-34.699 8.7109-10.453 24.246-11.863 34.699-3.1484" />
        <path
            d="m923.36 768.5c14.664 5.9219 21.75 22.613 15.828 37.277-5.9258 14.664-22.613 21.75-37.277 15.824-14.664-5.9219-21.75-22.613-15.828-37.277 5.9258-14.664 22.613-21.75 37.277-15.824" />
        <path
            d="m342.29 961.23c4.4609 4.0781 4.7695 11.004 0.6875 15.469-4.082 4.4609-11.008 4.7656-15.469 0.68359-4.4609-4.082-4.7695-11.008-0.6875-15.469 4.082-4.4609 11.008-4.7656 15.469-0.68359" />
        <path
            d="m426.86 1018.2c6.6602 3.5703 9.168 11.867 5.5977 18.527-3.5703 6.6602-11.867 9.168-18.527 5.5977-6.6602-3.5703-9.168-11.867-5.5977-18.527 3.5703-6.6602 11.867-9.168 18.527-5.5977" />
        <path
            d="m522.2 1052.3c8.8047 2.1758 14.18 11.078 12 19.879-2.1758 8.8047-11.078 14.18-19.879 12-8.8047-2.1758-14.18-11.074-12-19.879 2.1758-8.8047 11.078-14.176 19.879-12" />
        <path
            d="m641.64 1080.7c0.070313 10.578-8.4492 19.211-19.027 19.281-10.582 0.070313-19.215-8.4492-19.285-19.027-0.070313-10.578 8.4492-19.215 19.027-19.285 10.582-0.070312 19.215 8.4492 19.285 19.031" />
        <path
            d="m747.78 1061.9c3.0625 11.699-3.9414 23.66-15.641 26.723-11.699 3.0586-23.664-3.9453-26.723-15.645-3.0625-11.699 3.9414-23.664 15.641-26.723 11.699-3.0586 23.664 3.9453 26.723 15.645" />
        <path
            d="m845.73 1016.8c6.5781 11.902 2.2695 26.883-9.6328 33.461-11.898 6.582-26.879 2.2695-33.461-9.6289-6.582-11.898-2.2695-26.883 9.6289-33.461 11.902-6.582 26.883-2.2695 33.465 9.6289" />
        <path
            d="m929.14 948.36c10.355 11.012 9.8203 28.332-1.1914 38.684-11.012 10.355-28.332 9.8203-38.684-1.1914-10.355-11.016-9.8203-28.332 1.1914-38.688 11.012-10.352 28.332-9.8164 38.684 1.1953" />
        <path
            d="m992.59 861.07c14.02 8.9375 18.145 27.547 9.207 41.57-8.9375 14.02-27.547 18.145-41.57 9.207-14.02-8.9336-18.141-27.547-9.207-41.566 8.9375-14.023 27.547-18.145 41.57-9.2109" />
        <path
            d="m1032.7 758.1c18.574 6.1172 28.668 26.133 22.551 44.703-6.1133 18.574-26.129 28.668-44.703 22.551-18.57-6.1133-28.668-26.129-22.551-44.703 6.1172-18.57 26.133-28.668 44.703-22.551" />
        <path
            d="m1040.7 763.75c3.8984 2.3164 5.1797 7.3555 2.8594 11.254-2.3164 3.8984-7.3555 5.1797-11.25 2.8594-3.8984-2.3164-5.1797-7.3555-2.8633-11.25 2.3164-3.8984 7.3555-5.1797 11.254-2.8633" />
        <path
            d="m945.91 726.18c3.9062 2.3164 5.1914 7.3555 2.875 11.258-2.3164 3.9062-7.3555 5.1914-11.258 2.875-3.9062-2.3164-5.1914-7.3555-2.875-11.258 2.3125-3.9062 7.3555-5.1914 11.258-2.875" />
        <path
            d="m886.22 627.71c5.1914 3.0898 6.8984 9.8047 3.8047 15-3.0898 5.1953-9.8047 6.8984-15 3.8086-5.1953-3.0938-6.8984-9.8086-3.8086-15.004 3.0938-5.1914 9.8086-6.8984 15.004-3.8047" />
        <path
            d="m898.09 531.42c7.5117 0.85547 12.902 7.6367 12.047 15.148-0.85547 7.5078-7.6367 12.902-15.145 12.047-7.5117-0.85547-12.906-7.6406-12.047-15.148 0.85547-7.5078 7.6367-12.902 15.145-12.047" />
        <path
            d="m888.89 449.5c2.7617 8.6406-2 17.883-10.641 20.645-8.6367 2.7617-17.879-2.0039-20.641-10.641-2.7617-8.6367 2-17.879 10.641-20.641 8.6367-2.7617 17.879 2 20.641 10.637" />
        <path
            d="m845.95 362.53c7.0781 7.8711 6.4336 19.984-1.4375 27.062-7.8711 7.0742-19.984 6.4297-27.059-1.4414-7.0781-7.8672-6.4336-19.984 1.4375-27.059 7.8711-7.0742 19.984-6.4336 27.059 1.4375" />
        <path
            d="m741.03 317.78c11.676 5.1523 16.961 18.793 11.809 30.465-5.1523 11.676-18.793 16.961-30.465 11.809-11.676-5.1523-16.961-18.793-11.809-30.465 5.1523-11.676 18.793-16.961 30.465-11.809" />
        <path
            d="m986.17 632.05c5.8945 1.3477 9.582 7.2227 8.2305 13.121-1.3477 5.8945-7.2227 9.582-13.121 8.2305-5.8984-1.3477-9.582-7.2227-8.2344-13.121 1.3516-5.8984 7.2266-9.582 13.125-8.2305" />
        <path
            d="m1009.7 542.52c0.64844 7.5312-4.9297 14.164-12.461 14.812s-14.164-4.9336-14.812-12.465c-0.64844-7.5312 4.9336-14.16 12.465-14.809 7.5312-0.64844 14.16 4.9297 14.809 12.461" />
        <path
            d="m992.56 439.3c3.5039 8.3672-0.4375 17.988-8.8047 21.492-8.3633 3.5039-17.984-0.4375-21.488-8.8008-3.5039-8.3672 0.4375-17.988 8.8008-21.492 8.3672-3.5039 17.988 0.4375 21.492 8.8008" />
        <path
            d="m944.25 345.55c6.8789 8.0391 5.9414 20.129-2.0977 27.008-8.0352 6.8789-20.129 5.9375-27.008-2.0977-6.875-8.0391-5.9375-20.129 2.1016-27.008 8.0352-6.8789 20.129-5.9375 27.004 2.0977" />
        <path
            d="m868.93 270.53c10.297 6.3359 13.508 19.82 7.168 30.117-6.3359 10.297-19.82 13.508-30.117 7.1719-10.297-6.3398-13.508-19.824-7.1719-30.121 6.3398-10.297 19.824-13.508 30.121-7.168" />
        <path
            d="m773.48 221.83c13.211 3.2461 21.289 16.586 18.043 29.797-3.2422 13.211-16.582 21.289-29.793 18.043-13.211-3.2461-21.289-16.586-18.047-29.797 3.2461-13.211 16.586-21.289 29.797-18.043" />
        <path
            d="m697.35 229.89c1.1094 15.777-10.781 29.465-26.559 30.574-15.777 1.1133-29.465-10.777-30.574-26.555s10.777-29.465 26.555-30.574c15.777-1.1133 29.469 10.777 30.578 26.555" />
        <path
            d="m1081.9 664.2c5.8047 1.707 9.1211 7.7969 7.4141 13.602-1.7109 5.8008-7.8008 9.1211-13.602 7.4141-5.8047-1.7109-9.125-7.8008-7.4141-13.605 1.707-5.8008 7.7969-9.1211 13.602-7.4102" />
        <path
            d="m1096.5 557.47c7.5508 0.28516 13.441 6.6367 13.156 14.188-0.28125 7.5508-6.6328 13.438-14.184 13.156-7.5508-0.28516-13.441-6.6367-13.156-14.188 0.28516-7.5469 6.6367-13.438 14.184-13.156" />
        <path
            d="m1103.3 463.09c1.8984 8.8672-3.7461 17.594-12.613 19.496-8.8672 1.8984-17.594-3.7461-19.496-12.613-1.8984-8.8672 3.7461-17.594 12.613-19.496 8.8672-1.8984 17.594 3.7461 19.496 12.613" />
        <path
            d="m1070 358.81c4.7031 9.4766 0.83594 20.973-8.6445 25.676-9.4766 4.7031-20.973 0.83594-25.676-8.6445-4.7031-9.4766-0.83203-20.973 8.6445-25.676 9.4766-4.7031 20.973-0.83203 25.676 8.6445" />
        <path
            d="m1011.8 265.38c7.8789 9.1758 6.832 23-2.3398 30.879-9.1719 7.8828-23 6.8359-30.879-2.3398-7.8828-9.1719-6.8359-22.996 2.3398-30.879 9.1719-7.8789 22.996-6.832 30.879 2.3398" />
        <path
            d="m931.7 188.77c11.141 7.8125 13.836 23.176 6.0234 34.312-7.8086 11.141-23.172 13.836-34.309 6.0234-11.141-7.8125-13.836-23.172-6.0273-34.312 7.8125-11.137 23.176-13.836 34.312-6.0234" />
        <path
            d="m834.63 133.94c14.133 5.3633 21.242 21.168 15.879 35.301-5.3594 14.133-21.164 21.242-35.297 15.879-14.133-5.3594-21.242-21.164-15.883-35.297 5.3633-14.133 21.164-21.242 35.301-15.883" />
        <path
            d="m726.37 104.59c16.523 1.8789 28.395 16.801 26.516 33.324-1.8789 16.523-16.797 28.395-33.324 26.516-16.523-1.8789-28.395-16.801-26.516-33.324 1.8828-16.523 16.801-28.395 33.324-26.516" />
        <path
            d="m653.07 130.6c2.6523 19.375-10.906 37.227-30.277 39.879-19.371 2.6523-37.227-10.902-39.879-30.277-2.6523-19.371 10.902-37.227 30.277-39.879 19.371-2.6484 37.227 10.906 39.879 30.277" />
        <path
            d="m641.55 133.62c2.9297 0.73437 4.7109 3.7109 3.9727 6.6445-0.73828 2.9297-3.7109 4.7109-6.6445 3.9727-2.9297-0.73828-4.7109-3.7109-3.9727-6.6445 0.73438-2.9297 3.7109-4.7109 6.6445-3.9727" />
        <path
            d="m544.25 125.86c0.011719 4.5352-3.6562 8.2227-8.1914 8.2305-4.5312 0.011718-8.2188-3.6523-8.2305-8.1875-0.007812-4.5352 3.6562-8.2188 8.1914-8.2305 4.5352-0.011719 8.2188 3.6562 8.2305 8.1875" />
        <path
            d="m560.68 226.46c0.015625 4.5352-3.6484 8.2266-8.1875 8.2422-4.5352 0.011719-8.2227-3.6523-8.2383-8.1875-0.015624-4.5352 3.6484-8.2266 8.1875-8.2383 4.5352-0.015625 8.2227 3.6484 8.2383 8.1836" />
        <path
            d="m512.28 328.23c0.015625 6.0469-4.8672 10.961-10.914 10.977-6.043 0.019531-10.957-4.8672-10.973-10.91-0.019531-6.0469 4.8672-10.961 10.91-10.977 6.0469-0.019531 10.961 4.8672 10.977 10.91" />
        <path
            d="m426.6 356.23c3.1172 6.8867 0.070313 14.996-6.8164 18.117-6.8828 3.1211-14.992 0.070313-18.113-6.8125-3.1211-6.8867-0.070313-14.996 6.8125-18.117s14.996-0.070313 18.117 6.8125" />
        <path
            d="m359.27 416.01c6.8086 5.9922 7.4648 16.367 1.4727 23.176-5.9961 6.8047-16.371 7.4609-23.176 1.4688-6.8047-5.9922-7.4648-16.371-1.4727-23.176 5.9961-6.8047 16.371-7.4648 23.176-1.4688" />
        <path
            d="m307.45 486.32c10.113 3.1211 15.781 13.852 12.66 23.965-3.125 10.113-13.852 15.781-23.965 12.656-10.113-3.1211-15.781-13.852-12.66-23.965 3.125-10.109 13.852-15.777 23.965-12.656" />
        <path
            d="m344.81 606.3c1.5703 12.664-7.4219 24.203-20.086 25.773-12.664 1.5703-24.203-7.4219-25.773-20.086-1.5664-12.664 7.4258-24.203 20.09-25.773 12.66-1.5703 24.199 7.4258 25.77 20.086" />
        <path
            d="m463.64 233.53c1.8672 5.75-1.2773 11.922-7.0273 13.789-5.75 1.8711-11.926-1.2773-13.793-7.0273-1.8672-5.75 1.2812-11.926 7.0312-13.793 5.7461-1.8672 11.922 1.2812 13.789 7.0312" />
        <path
            d="m373.03 269.2c4.4219 6.1289 3.0352 14.68-3.0938 19.102-6.125 4.418-14.68 3.0352-19.098-3.0938-4.4219-6.1289-3.0352-14.684 3.0898-19.102 6.1289-4.4219 14.684-3.0352 19.102 3.0938" />
        <path
            d="m297.08 330.27c7.3008 5.3789 8.8633 15.656 3.4844 22.957-5.375 7.3008-15.652 8.8633-22.953 3.4883-7.3047-5.3789-8.8633-15.656-3.4883-22.957 5.3789-7.3008 15.656-8.8633 22.957-3.4883" />
        <path
            d="m242.73 411.26c10.031 3.3672 15.438 14.23 12.07 24.266-3.3672 10.031-14.23 15.438-24.266 12.07-10.031-3.3672-15.438-14.23-12.07-24.266 3.3672-10.031 14.23-15.438 24.266-12.07" />
        <path
            d="m214.91 504.86c12.094 0.15625 21.773 10.082 21.621 22.18-0.15234 12.094-10.082 21.773-22.176 21.617-12.094-0.15234-21.773-10.082-21.621-22.176 0.15625-12.094 10.082-21.773 22.176-21.621" />
        <path
            d="m247.04 618.92c4 13.008-3.3047 26.789-16.309 30.785-13.008 4-26.793-3.3047-30.789-16.309-3.9961-13.008 3.3047-26.789 16.312-30.789 13.004-3.9961 26.789 3.3086 30.785 16.312" />
        <path
            d="m285.82 701.7c9.0508 12.969 5.875 30.816-7.0898 39.867-12.969 9.0508-30.816 5.875-39.867-7.0898-9.0508-12.969-5.875-30.816 7.0898-39.867 12.969-9.0508 30.816-5.875 39.867 7.0898" />
        <path
            d="m442.48 136.21c1.5078 5.8555-2.0195 11.82-7.875 13.328-5.8555 1.5039-11.82-2.0195-13.328-7.875-1.5039-5.8555 2.0195-11.824 7.875-13.328 5.8555-1.5078 11.824 2.0195 13.328 7.875" />
        <path
            d="m346.15 170.7c3.6328 6.625 1.207 14.941-5.4219 18.574-6.625 3.6328-14.941 1.207-18.574-5.418-3.6328-6.625-1.207-14.941 5.418-18.574 6.625-3.6367 14.941-1.2109 18.578 5.418" />
        <path
            d="m260.91 227.34c6.1836 6.6328 5.8203 17.027-0.8125 23.211-6.6367 6.1875-17.027 5.8203-23.211-0.8125-6.1875-6.6328-5.8242-17.027 0.8125-23.211 6.6328-6.1875 17.023-5.8203 23.211 0.8125" />
        <path
            d="m191.73 302.81c8.9023 5.7148 11.484 17.562 5.7695 26.461-5.7188 8.9023-17.566 11.484-26.465 5.7695-8.9023-5.7148-11.484-17.562-5.7695-26.465 5.7148-8.8984 17.562-11.48 26.465-5.7656" />
        <path
            d="m142.72 392.72c11.469 3.8242 17.668 16.223 13.844 27.695-3.8242 11.473-16.223 17.672-27.695 13.848-11.473-3.8242-17.672-16.227-13.848-27.695 3.8281-11.473 16.227-17.672 27.699-13.848" />
        <path
            d="m116.71 491.81c13.566 0.98438 23.77 12.781 22.781 26.352-0.98438 13.57-12.781 23.77-26.352 22.785-13.57-0.98437-23.77-12.785-22.785-26.352 0.98438-13.57 12.785-23.773 26.355-22.785" />
        <path
            d="m147.03 616.41c2.6602 14.879-7.25 29.098-22.129 31.754-14.883 2.6602-29.098-7.25-31.754-22.129-2.6602-14.883 7.25-29.098 22.129-31.758 14.883-2.6562 29.098 7.2539 31.754 22.133" />
        <path
            d="m178.36 709.15c6.8672 15.141 0.16406 32.984-14.977 39.855-15.141 6.8672-32.984 0.16406-39.855-14.977s-0.16406-32.984 14.977-39.855 32.984-0.16406 39.855 14.977" />
        <path
            d="m233.23 789.09c12.219 15.266 9.7461 37.543-5.5156 49.758-15.262 12.219-37.543 9.75-49.758-5.5156-12.219-15.262-9.75-37.539 5.5156-49.758 15.262-12.215 37.539-9.7461 49.758 5.5156" />
    </g>
</svg>