<svg width="1046" height="1026" viewBox="0 0 1046 1026" fill="none" xmlns="http://www.w3.org/2000/svg">
<g filter="url(#filter0_d_13_7)">
<path d="M425.135 611.188V393.816L616.455 502.505L425.135 611.188ZM850.703 325.418C842.284 293.764 817.479 268.835 785.987 260.375C728.903 245 499.998 245 499.998 245C499.998 245 271.097 245 214.014 260.375C182.521 268.835 157.716 293.764 149.297 325.418C134 382.792 134 502.502 134 502.502C134 502.502 134 622.205 149.297 679.582C157.716 711.239 182.518 736.165 214.014 744.631C271.097 760 499.998 760 499.998 760C499.998 760 728.903 760 785.987 744.631C817.479 736.165 842.284 711.239 850.703 679.582C866 622.205 866 502.498 866 502.498C866 502.498 866 382.792 850.703 325.418Z" fill="white"/>
</g>
<g filter="url(#filter1_d_13_7)">
<rect x="34" y="37" width="932" height="932" rx="56" stroke="white" stroke-width="68" shape-rendering="crispEdges"/>
</g>
<defs>
<filter id="filter0_d_13_7" x="134" y="242.9" width="777.1" height="539.2" filterUnits="userSpaceOnUse" color-interpolation-filters="sRGB">
<feFlood flood-opacity="0" result="BackgroundImageFix"/>
<feColorMatrix in="SourceAlpha" type="matrix" values="0 0 0 0 0 0 0 0 0 0 0 0 0 0 0 0 0 0 127 0" result="hardAlpha"/>
<feOffset dx="33" dy="10"/>
<feGaussianBlur stdDeviation="6.05"/>
<feComposite in2="hardAlpha" operator="out"/>
<feColorMatrix type="matrix" values="0 0 0 0 0 0 0 0 0 0 0 0 0 0 0 0 0 0 0.25 0"/>
<feBlend mode="lighten" in2="BackgroundImageFix" result="effect1_dropShadow_13_7"/>
<feBlend mode="normal" in="SourceGraphic" in2="effect1_dropShadow_13_7" result="shape"/>
</filter>
<filter id="filter1_d_13_7" x="0" y="0.9" width="1045.1" height="1024.2" filterUnits="userSpaceOnUse" color-interpolation-filters="sRGB">
<feFlood flood-opacity="0" result="BackgroundImageFix"/>
<feColorMatrix in="SourceAlpha" type="matrix" values="0 0 0 0 0 0 0 0 0 0 0 0 0 0 0 0 0 0 127 0" result="hardAlpha"/>
<feOffset dx="33" dy="10"/>
<feGaussianBlur stdDeviation="6.05"/>
<feComposite in2="hardAlpha" operator="out"/>
<feColorMatrix type="matrix" values="0 0 0 0 0 0 0 0 0 0 0 0 0 0 0 0 0 0 0.25 0"/>
<feBlend mode="lighten" in2="BackgroundImageFix" result="effect1_dropShadow_13_7"/>
<feBlend mode="normal" in="SourceGraphic" in2="effect1_dropShadow_13_7" result="shape"/>
</filter>
</defs>
</svg>
