<!DOCTYPE svg PUBLIC "-//W3C//DTD SVG 1.1//EN" "http://www.w3.org/Graphics/SVG/1.1/DTD/svg11.dtd">

<!-- Uploaded to: SVG Repo, www.svgrepo.com, Transformed by: SVG Repo Mixer Tools -->
<svg fill="#000000" width="45px" height="45px" viewBox="0 0 24 24" id="energy-drink" data-name="Line Color" xmlns="http://www.w3.org/2000/svg" class="icon line-color">

<g id="SVGRepo_bgCarrier" stroke-width="0"/>

<g id="SVGRepo_tracerCarrier" stroke-linecap="round" stroke-linejoin="round" stroke="#eebe00" stroke-width="4.8">

<polyline id="secondary" points="12 15 13.5 12 10.5 12 12 9" style="fill: none; stroke: #eebe00; stroke-linecap: round; stroke-linejoin: round; stroke-width: 2;"/>

<path id="primary" d="M17.92,7.61A4.15,4.15,0,0,1,18,8.4v9a3.93,3.93,0,0,1-.21,1.27L17,21H7l-.79-2.38A3.93,3.93,0,0,1,6,17.35v-9a4.15,4.15,0,0,1,.08-.79L7,3H17ZM6,3H18M6,21H18" style="fill: none; stroke: #eebe0000000; stroke-linecap: round; stroke-linejoin: round; stroke-width: 2;"/>

</g>

<g id="SVGRepo_iconCarrier">

<polyline id="secondary" points="12 15 13.5 12 10.5 12 12 9" style="fill: none; stroke: #eebe00; stroke-linecap: round; stroke-linejoin: round; stroke-width: 2;"/>

<path id="primary" d="M17.92,7.61A4.15,4.15,0,0,1,18,8.4v9a3.93,3.93,0,0,1-.21,1.27L17,21H7l-.79-2.38A3.93,3.93,0,0,1,6,17.35v-9a4.15,4.15,0,0,1,.08-.79L7,3H17ZM6,3H18M6,21H18" style="fill: none; stroke: #eebe0000000; stroke-linecap: round; stroke-linejoin: round; stroke-width: 2;"/>

</g>

</svg>