<?xml version="1.0" ?>

<!-- Uploaded to: SVG Repo, www.svgrepo.com, Generator: SVG Repo Mixer Tools -->
<svg fill="#eebe00" width="45px" height="eebe00" viewBox="0 0 512 512" version="1.1" xml:space="preserve" xmlns="http://www.w3.org/2000/svg" xmlns:xlink="http://www.w3.org/1999/xlink">

<g id="Mining_Cart">

<g id="XMLID_888_">

<path d="M358.371,398.16c-18.273,0-33.14,14.867-33.14,33.141c0,18.273,14.867,33.14,33.14,33.14    c18.274,0,33.141-14.867,33.141-33.14C391.512,413.027,376.645,398.16,358.371,398.16z M365.419,438.345    c-1.863,1.852-4.424,2.919-7.054,2.919c-2.62,0-5.181-1.066-7.044-2.919c-1.854-1.853-2.919-4.424-2.919-7.044    c0-2.62,1.065-5.19,2.919-7.044c1.853-1.852,4.424-2.919,7.044-2.919c2.63,0,5.19,1.066,7.054,2.919    c1.852,1.853,2.909,4.424,2.909,7.044C368.328,433.921,367.272,436.492,365.419,438.345z" id="XMLID_891_"/>

<polygon id="XMLID_892_" points="412.531,152 325.531,47.571 260.958,115.1 297.843,152   "/>

<polygon id="XMLID_893_" points="180.569,62.905 91.474,152 269.664,152   "/>

<path d="M153.629,398.16c-18.274,0-33.141,14.867-33.141,33.141c0,18.273,14.867,33.14,33.141,33.14    c18.273,0,33.14-14.867,33.14-33.14C186.77,413.027,171.902,398.16,153.629,398.16z M160.667,438.345    c-1.852,1.852-4.413,2.919-7.033,2.919c-2.631,0-5.2-1.066-7.054-2.919c-1.853-1.853-2.919-4.424-2.919-7.044    c0-2.62,1.065-5.19,2.919-7.044c1.853-1.852,4.423-2.919,7.054-2.919c2.62,0,5.181,1.066,7.033,2.919    c1.863,1.853,2.929,4.424,2.929,7.044C163.597,433.921,162.53,436.492,160.667,438.345z" id="XMLID_896_"/>

<polygon id="XMLID_897_" points="45.254,271 466.746,271 475.526,227 36.474,227   "/>

<path d="M433.82,172c-0.004,0-0.008,0-0.011,0c-0.003,0-0.006,0-0.009,0H67.428c-0.005,0-0.01,0-0.015,0H2v34h508    v-34H433.82z" id="XMLID_898_"/>

<path d="M75.586,422h25.833c4.466-25,26.169-43.632,52.21-43.632c26.04,0,47.743,18.632,52.209,43.632h100.324    c4.466-25,26.169-43.632,52.209-43.632c26.04,0,47.744,18.632,52.21,43.632h25.833l26.341-131H49.245L75.586,422z" id="XMLID_899_"/>

</g>

</g>

<g id="Layer_1"/>

</svg>