<svg xmlns="http://www.w3.org/2000/svg" viewBox="0 0 64 80" width="40px" height="40px" x="0px" y="0px">
	<title>
		road roller
	</title>
	<g data-name="road roller">
		<path d="M45,44a3,3,0,1,1-3-3A3.0033,3.0033,0,0,1,45,44ZM14,52a7.9514,7.9514,0,0,0,6.23-3H7.77A7.9514,7.9514,0,0,0,14,52Zm0-16a7.9512,7.9512,0,0,0-6.23,3H20.23A7.9512,7.9512,0,0,0,14,36Zm11,5H3a1,1,0,0,0-1,1v4a1,1,0,0,0,1,1H25a1,1,0,0,0,1-1V42A1,1,0,0,0,25,41Zm33-4H55a1,1,0,0,0-1,1v8H51.8A10.0009,10.0009,0,1,0,32,44c0,.34.02.67.05,1H28V42a3.0088,3.0088,0,0,0-3-3H22.66A10.0264,10.0264,0,0,0,14,34V33l.0419-.2866,6-20A1.0008,1.0008,0,0,1,21,12H39a1,1,0,0,1,1,1V24.2427L57.27,29.04A.9961.9961,0,0,1,58,30ZM38,14H21.7441l-2.7,9H21V22a1,1,0,0,1,2,0v4a1,1,0,0,1-2,0V25H18.4442l-2.1,7H38ZM61,39H56v6.5352l5.5547-3.7031A1,1,0,0,0,62,41V40A1,1,0,0,0,61,39ZM50,44a8,8,0,1,1-8-8A8.0092,8.0092,0,0,1,50,44Zm-3,0a5,5,0,1,0-5,5A5.0059,5.0059,0,0,0,47,44ZM36,30V17H34a1,1,0,0,0-1,1v9H26a1,1,0,0,0-1,1v2Z"  fill="#EEBE00"/> 
	</g>
</svg>
