<!DOCTYPE svg PUBLIC "-//W3C//DTD SVG 1.1//EN" "http://www.w3.org/Graphics/SVG/1.1/DTD/svg11.dtd">
<!-- Uploaded to: SVG Repo, www.svgrepo.com, Transformed by: SVG Repo Mixer Tools -->
<svg fill="#eebe00" height="64px" width="64px" version="1.1" id="Capa_1" xmlns="http://www.w3.org/2000/svg" xmlns:xlink="http://www.w3.org/1999/xlink" viewBox="0 0 470 470" xml:space="preserve">
<g id="SVGRepo_bgCarrier" stroke-width="0"/>
<g id="SVGRepo_tracerCarrier" stroke-linecap="round" stroke-linejoin="round"/>
<g id="SVGRepo_iconCarrier"> <g> <path d="M151.317,78.868c4.143,0,7.5-3.358,7.5-7.5c0-5.514,4.486-10,10-10s10,4.486,10,10s-4.486,10-10,10 c-4.143,0-7.5,3.358-7.5,7.5s3.357,7.5,7.5,7.5c13.785,0,25-11.215,25-25s-11.215-25-25-25s-25,11.215-25,25 C143.817,75.51,147.175,78.868,151.317,78.868z"/> <path d="M263.411,421.413c-0.847-3.322-3.839-5.647-7.268-5.647H227.73V111.593c7.851-11.462,12.455-25.314,12.455-40.226 C240.185,32.016,208.169,0,168.817,0c-39.353,0-71.368,32.016-71.368,71.368c0,14.911,4.604,28.764,12.455,40.226v304.172H81.49 c-3.429,0-6.421,2.325-7.268,5.647l-10,39.235c-0.572,2.244-0.075,4.626,1.346,6.455S69.175,470,71.49,470h194.653 c4.162,0,7.52-3.358,7.52-7.5c0-0.838-0.137-1.644-0.391-2.396L263.411,421.413z M168.817,15c31.081,0,56.367,25.287,56.367,56.368 s-25.286,56.368-56.367,56.368s-56.368-25.287-56.368-56.368S137.736,15,168.817,15z M124.904,127.564 c12.12,9.492,27.361,15.171,43.913,15.171c16.552,0,31.792-5.68,43.912-15.171v288.201h-87.825V127.564z M81.142,455l6.177-24.235 h162.997L256.492,455H81.142z"/> <path d="M186.591,220.524c4.143,0,7.5-3.358,7.5-7.5s-3.357-7.5-7.5-7.5h-10.273v-29.15h10.273c4.143,0,7.5-3.358,7.5-7.5 s-3.357-7.5-7.5-7.5h-35.547c-4.143,0-7.5,3.358-7.5,7.5s3.357,7.5,7.5,7.5h10.273v29.15h-10.273c-4.143,0-7.5,3.358-7.5,7.5 s3.357,7.5,7.5,7.5h10.273v29.151h-10.273c-4.143,0-7.5,3.358-7.5,7.5s3.357,7.5,7.5,7.5h10.273v29.15h-10.273 c-4.143,0-7.5,3.358-7.5,7.5s3.357,7.5,7.5,7.5h10.273v29.15h-10.273c-4.143,0-7.5,3.358-7.5,7.5s3.357,7.5,7.5,7.5h10.273v29.15 h-10.273c-4.143,0-7.5,3.358-7.5,7.5s3.357,7.5,7.5,7.5h35.547c4.143,0,7.5-3.358,7.5-7.5s-3.357-7.5-7.5-7.5h-10.273v-29.15 h10.273c4.143,0,7.5-3.358,7.5-7.5s-3.357-7.5-7.5-7.5h-10.273v-29.15h10.273c4.143,0,7.5-3.358,7.5-7.5s-3.357-7.5-7.5-7.5 h-10.273v-29.15h10.273c4.143,0,7.5-3.358,7.5-7.5s-3.357-7.5-7.5-7.5h-10.273v-29.151H186.591z"/> <path d="M398.51,400.865h-41.863V213.024c0-4.142-3.357-7.5-7.5-7.5s-7.5,3.358-7.5,7.5v187.841h-41.864 c-4.143,0-7.5,3.358-7.5,7.5V462.5c0,4.142,3.357,7.5,7.5,7.5h98.728c4.143,0,7.5-3.358,7.5-7.5v-54.135 C406.01,404.223,402.652,400.865,398.51,400.865z M391.01,455h-83.728v-39.135h83.728V455z"/> </g> </g>
</svg>