<!DOCTYPE svg PUBLIC "-//W3C//DTD SVG 1.1//EN" "http://www.w3.org/Graphics/SVG/1.1/DTD/svg11.dtd">

<!-- Uploaded to: SVG Repo, www.svgrepo.com, Transformed by: SVG Repo Mixer Tools -->
<svg fill="#eebe00" height="45px" width="45px" version="1.1" id="Layer_1" xmlns="http://www.w3.org/2000/svg" xmlns:xlink="http://www.w3.org/1999/xlink" viewBox="0 0 512 512" xml:space="preserve">

<g id="SVGRepo_bgCarrier" stroke-width="0"/>

<g id="SVGRepo_tracerCarrier" stroke-linecap="round" stroke-linejoin="round"/>

<g id="SVGRepo_iconCarrier"> <g> <g> <g> <path d="M485.127,149.129c-1.553-2.517-4.292-4.053-7.253-4.053l-8.055-0.009h-0.102c-44.228,0-81.357,23.492-101.888,64.452 c-1.195,2.406-1.195,5.231,0,7.646l12.271,24.533l-21.7,5.214V102.4c0-56.465-45.935-102.4-102.4-102.4 c-55.535,0-100.787,44.467-102.263,99.652L26.981,294.007c-0.896,1.391-1.382,3.004-1.382,4.659V358.4 c0,2.876,1.442,5.555,3.849,7.134c1.408,0.93,3.046,1.399,4.685,1.399c1.152,0,2.304-0.23,3.379-0.7l56.414-24.363 c1.468-0.631,2.722-1.664,3.644-2.987l56.03-81.109V409.6c0,56.474,45.935,102.4,102.4,102.4 c55.706,0,101.069-44.723,102.289-100.147l127.215-254.421C486.825,154.786,486.68,151.646,485.127,149.129z M84.905,327.168 l-42.24,18.253v-44.22l110.916-170.069c0,28.646,0.009,71.689,0.017,96.614L84.905,327.168z M255.998,34.133 c28.237,0,51.2,22.972,51.2,51.2c0,28.237-22.963,51.2-51.2,51.2c-28.237,0-51.2-22.963-51.2-51.2 C204.798,57.105,227.761,34.133,255.998,34.133z M255.998,477.867c-28.237,0-51.2-22.963-51.2-51.2 c0-28.228,22.963-51.2,51.2-51.2c28.237,0,51.2,22.972,51.2,51.2C307.198,454.903,284.235,477.867,255.998,477.867z M324.265,281.6c0,4.719-3.814,8.533-8.533,8.533h-25.6v25.6c0,4.719-3.814,8.533-8.533,8.533h-51.2 c-4.719,0-8.533-3.814-8.533-8.533v-25.6h-25.6c-4.719,0-8.533-3.814-8.533-8.533v-51.2c0-4.71,3.814-8.533,8.533-8.533h25.6 v-25.6c0-4.71,3.814-8.533,8.533-8.533h51.2c4.719,0,8.533,3.823,8.533,8.533v25.6h25.6c4.719,0,8.533,3.823,8.533,8.533V281.6z M358.398,373.461V264.474l36.13-8.695c2.526-0.606,4.642-2.338,5.734-4.702c1.101-2.355,1.067-5.086-0.094-7.415l-15.121-30.225 c16.905-30.933,45.269-49.271,78.933-51.14L358.398,373.461z"/> <path d="M255.998,392.537c-18.825,0-34.133,15.309-34.133,34.133c0,18.824,15.309,34.133,34.133,34.133 c18.825,0,34.133-15.309,34.133-34.133C290.132,407.846,274.823,392.537,255.998,392.537z"/> <path d="M255.998,119.47c18.825,0,34.133-15.309,34.133-34.133s-15.309-34.133-34.133-34.133 c-18.825,0-34.133,15.309-34.133,34.133S237.174,119.47,255.998,119.47z"/> <path d="M273.065,230.403v-25.6h-34.133v25.6c0,4.719-3.814,8.533-8.533,8.533h-25.6v34.133h25.6 c4.719,0,8.533,3.814,8.533,8.533v25.6h34.133v-25.6c0-4.719,3.814-8.533,8.533-8.533h25.6v-34.133h-25.6 C276.879,238.937,273.065,235.122,273.065,230.403z"/> </g> </g> </g> </g>

</svg>